# xmcd
#
# Track frame offsets:
#	150
#	11734
#	25107
#	38196
#	54180
#	68991
#	81959
#	94300
#	105724
#	120156
#	135880
#	151023
#	165350
#	179549
#	192865
#	206987
#	219054
#	234311
#	246540
#	259279
#	273249
#	287452
#	300937
#	314097
#
# Disc length: 4331 seconds
# Revision: 3
# Processed by: cddbd v1.5.2PL0 Copyright (c) Steve Scherf et al.
# Submitted via: dBpowerAMP V12.0
#
DISCID=4010e918
DTITLE=Various Artist - Bed Spring Poker - Meat In Motion 1926-1951 [CD 1)
DYEAR=1947
DGENRE=Blues
TTITLE0=Lightnin' Hopkins - Let Me Play With Your Poodle
TTITLE1=Bessie Smith - Kitchen Man
TTITLE2=Dan Pickett - Lemon Man
TTITLE3=Madelyn James - Stinging Snake Blues
TTITLE4=Leadbelly - Pig Meat Papa
TTITLE5=Big Bill Broonzy - How You Want It Done
TTITLE6=Margaret Carter - I Want Plenty Grease In My Frying Pan
TTITLE7=Little Buddy Doyle - She's Got Good Dry Goods
TTITLE8=Mississippi Sheiks - Bed Spring Poker
TTITLE9=Cleo Gibson - I've Got Ford Movements In My Hips
TTITLE10=Tampa Red - She Want To Sell My Monkey
TTITLE11=Buddy Moss - You Got To Give Me Some Of It
TTITLE12=Bernice Edwards - Butcher Shop Blues
TTITLE13=Lonnie Johnson - The Best Jockey In Town
TTITLE14=Blind Boy Fuller - I'm A Rattlesnakin' Daddy
TTITLE15=Memphis Minnie - Keep On Eatin'
TTITLE16=Walter Davis - That Stuff You Sell Ain't No Good
TTITLE17=Ralph Willis - Comb Your Kitty Kat
TTITLE18=Lucille Bogan - Shave 'Em Dry
TTITLE19=Johnny Temple - Lead Pencil Blues
TTITLE20=Cliff Carlisle - Mouse's Ear Blues
TTITLE21=Tony Hollins - Crawlin' King Snake
TTITLE22=Sippie Wallace - I'm A Mighty Tight Woman
TTITLE23=Roosevelt Sykes - My Baby's Playground
EXTD=
EXTT0=
EXTT1=
EXTT2=
EXTT3=
EXTT4=
EXTT5=
EXTT6=
EXTT7=
EXTT8=
EXTT9=
EXTT10=
EXTT11=
EXTT12=
EXTT13=
EXTT14=
EXTT15=
EXTT16=
EXTT17=
EXTT18=
EXTT19=
EXTT20=
EXTT21=
EXTT22=
EXTT23=
PLAYORDER=
